<svg width="150" height="118" viewBox="0 0 150 118" fill="none" xmlns="http://www.w3.org/2000/svg">
<path d="M143.413 65.7666C143.413 65.7666 130.333 67.5839 122.688 71.125C115.84 74.2971 106.452 79.4678 99.7953 84.6389M99.7953 84.6389C92.3882 90.3931 88.3637 96.1479 94.9864 99.1501C105.923 104.108 118.125 93.929 117.871 85.5096C117.69 79.4838 109.196 81.0559 99.7953 84.6389ZM99.7953 84.6389C94.0199 86.8401 87.902 89.8002 83.1584 92.2237C71.7766 98.0388 65.2084 105.878 65.2084 105.878" stroke="white" stroke-opacity="0.61" stroke-width="2" stroke-linecap="round"/>
<path d="M44.6072 82.4632C44.6072 82.4632 56.7999 73.7705 62.0878 66.6282C72.0955 53.1108 87.2281 25.9471 69.9853 28.1092C54.9881 29.9898 49.904 45.1554 56.4089 52.019C63.9247 59.9494 79.1829 39.5173 87.3646 27.3767C94.8352 16.2912 95.8221 6.16471 95.8221 6.16471" stroke="white" stroke-opacity="0.61" stroke-width="6" stroke-linecap="round"/>
<path d="M28.6032 9.8236C28.6199 9.30872 28.1618 8.95456 27.5799 9.03256L18.0978 10.3036C17.5159 10.3816 17.0307 10.8622 17.0139 11.3771C16.9971 11.892 17.4553 12.2461 18.0371 12.1681L26.4657 11.0383L26.223 18.4965C26.2062 19.0114 26.6643 19.3655 27.2462 19.2875C27.8281 19.2095 28.3134 18.7289 28.3301 18.214L28.6032 9.8236ZM18.1264 48.778L17.9704 47.8852L18.1264 48.778ZM17.7182 22.4435L16.7635 22.2025L17.7182 22.4435ZM6.03081 51.2793L5.05501 51.0841L6.03081 51.2793ZM23.9666 31.4243L23.2437 32.2147L23.9666 31.4243ZM27.5496 9.96483C26.8261 9.40548 26.826 9.4055 26.826 9.40553C26.826 9.40554 26.826 9.40557 26.8259 9.40559C26.8259 9.40564 26.8258 9.4057 26.8258 9.40576C26.8256 9.40589 26.8255 9.40606 26.8253 9.40625C26.8249 9.40664 26.8244 9.40717 26.8237 9.40783C26.8224 9.40915 26.8205 9.411 26.8181 9.41337C26.8133 9.41812 26.8064 9.42497 26.7975 9.43388C26.7796 9.45169 26.7536 9.47773 26.7199 9.51162C26.6524 9.57939 26.5541 9.67859 26.429 9.80622C26.1788 10.0615 25.8209 10.4307 25.3869 10.89L26.8931 11.9481C27.3152 11.5015 27.6621 11.1436 27.9027 10.8982C28.0229 10.7755 28.1165 10.681 28.1796 10.6177C28.2111 10.586 28.235 10.5621 28.2508 10.5464C28.2586 10.5386 28.2645 10.5328 28.2682 10.529C28.2701 10.5272 28.2715 10.5258 28.2723 10.525C28.2727 10.5246 28.273 10.5243 28.2731 10.5242C28.2732 10.5241 28.2732 10.5241 28.2732 10.5241C28.2732 10.5241 28.2732 10.5241 28.2732 10.5241C28.2732 10.5241 28.2732 10.5241 28.2732 10.5241C28.2732 10.5242 28.2731 10.5242 27.5496 9.96483ZM22.6441 13.9247C21.803 14.8994 20.9154 15.9739 20.0684 17.0827L21.7421 17.944C22.5533 16.882 23.4089 15.8459 24.226 14.899L22.6441 13.9247ZM17.7506 20.4227C17.3836 21.0223 17.0493 21.6192 16.7635 22.2025L18.6728 22.6846C18.9232 22.1736 19.2224 21.6378 19.5605 21.0856L17.7506 20.4227ZM16.7635 22.2025C16.4612 22.8194 16.1538 23.4708 15.8458 24.1494L17.7818 24.575C18.0817 23.9144 18.3802 23.2819 18.6728 22.6846L16.7635 22.2025ZM14.1853 28.0733C13.6778 29.3624 13.1898 30.6958 12.7428 32.0379L14.7565 32.2658C15.1914 30.9599 15.6671 29.66 16.1625 28.4016L14.1853 28.0733ZM11.5502 36.0401C11.1898 37.428 10.8968 38.7921 10.6978 40.0898L12.7859 40.0113C12.9739 38.7854 13.2529 37.4832 13.6007 36.1436L11.5502 36.0401ZM10.4216 44.1779C10.4882 45.7221 10.803 47.1155 11.5065 48.17L13.3684 47.0031C12.8705 46.2568 12.5883 45.1681 12.5281 43.7723L10.4216 44.1779ZM15.7707 50.1115C16.5402 50.0823 17.3778 49.934 18.2824 49.6707L17.9704 47.8852C17.2266 48.1017 16.5942 48.207 16.0586 48.2274L15.7707 50.1115ZM18.2824 49.6707C19.0366 49.4511 19.7503 49.1918 20.4231 48.8966L19.7855 47.2295C19.2233 47.4761 18.6188 47.6965 17.9704 47.8852L18.2824 49.6707ZM24.3266 46.4181C25.5174 45.3549 26.4343 44.1532 27.0894 42.8952L25.2039 42.366C24.6714 43.3884 23.9321 44.355 22.9772 45.2076L24.3266 46.4181ZM28.2932 38.9591C28.4337 37.645 28.3204 36.35 27.9656 35.1533L25.9201 35.9281C26.2175 36.9309 26.3124 38.0172 26.1948 39.1166L28.2932 38.9591ZM26.1524 31.8958C25.7259 31.426 25.238 31.0014 24.6894 30.6338L23.2437 32.2147C23.6827 32.5089 24.0768 32.8511 24.424 33.2335L26.1524 31.8958ZM24.6894 30.6338C24.107 30.2435 23.4919 29.9732 22.8436 29.8309L22.0102 31.6682C22.3982 31.7534 22.811 31.9247 23.2437 32.2147L24.6894 30.6338ZM18.3671 30.7448C17.2346 31.4168 16.1596 32.3718 15.1523 33.476L16.6885 34.5018C17.5968 33.5063 18.4733 32.7507 19.2993 32.2606L18.3671 30.7448ZM12.7384 36.5356C12.04 37.5363 11.3622 38.6041 10.7108 39.7046L12.5381 40.3387C13.1668 39.2765 13.8136 38.2584 14.4724 37.3144L12.7384 36.5356ZM8.91822 42.9243C8.34585 44.012 7.80006 45.1052 7.28597 46.1755L9.2026 46.6426C9.70723 45.592 10.2412 44.5226 10.7994 43.4618L8.91822 42.9243ZM5.77392 49.4456C5.52217 50.0101 5.28222 50.558 5.05501 51.0841L7.00662 51.4744C7.23092 50.9551 7.46757 50.4148 7.71565 49.8585L5.77392 49.4456ZM5.05501 51.0841C4.77506 51.7323 4.52208 52.3717 4.29357 52.9999L6.28941 53.279C6.50489 52.6867 6.7432 52.0844 7.00662 51.4744L5.05501 51.0841ZM3.13474 56.8661C2.80061 58.2716 2.58285 59.5764 2.44399 60.7426L4.54008 60.6056C4.67175 59.4997 4.87821 58.263 5.19459 56.9322L3.13474 56.8661ZM2.22084 64.5921C2.22534 65.1963 2.24977 65.6737 2.27346 66.003C2.28531 66.1678 2.29699 66.2956 2.30591 66.3838C2.31037 66.4279 2.31414 66.4622 2.3169 66.4863C2.31829 66.4983 2.31942 66.5078 2.32025 66.5146C2.32067 66.5181 2.32102 66.5209 2.32129 66.523C2.32142 66.5241 2.32154 66.525 2.32163 66.5257C2.32168 66.5261 2.32172 66.5265 2.32176 66.5267C2.32177 66.5269 2.32179 66.527 2.32181 66.5271C2.32182 66.5272 2.32183 66.5273 2.32183 66.5273C2.32184 66.5274 2.32185 66.5275 3.36946 66.2584C4.41706 65.9893 4.41707 65.9894 4.41708 65.9894C4.41708 65.9895 4.41709 65.9895 4.41709 65.9896C4.4171 65.9897 4.41711 65.9897 4.41712 65.9898C4.41714 65.9899 4.41715 65.99 4.41715 65.99C4.41717 65.9901 4.41716 65.9901 4.41713 65.9898C4.41707 65.9894 4.41693 65.9883 4.41672 65.9865C4.4163 65.983 4.41557 65.977 4.41459 65.9684C4.41262 65.9513 4.40961 65.9241 4.40589 65.8872C4.39843 65.8134 4.38808 65.7007 4.37736 65.5517C4.35592 65.2537 4.33303 64.8109 4.32881 64.2439L2.22084 64.5921Z" fill="white" fill-opacity="0.61"/>
</svg>
